<?xml version="1.0" encoding="UTF-8" standalone="no"?>
<!-- Created with Inkscape (http://www.inkscape.org/) -->

<svg
   xmlns:dc="http://purl.org/dc/elements/1.1/"
   xmlns:cc="http://creativecommons.org/ns#"
   xmlns:rdf="http://www.w3.org/1999/02/22-rdf-syntax-ns#"
   xmlns:svg="http://www.w3.org/2000/svg"
   xmlns="http://www.w3.org/2000/svg"
   xmlns:sodipodi="http://sodipodi.sourceforge.net/DTD/sodipodi-0.dtd"
   xmlns:inkscape="http://www.inkscape.org/namespaces/inkscape"
   width="400"
   height="400"
   id="svg3151"
   version="1.1"
   inkscape:version="0.48.4 r9939"
   sodipodi:docname="New document 5">
  <defs
     id="defs3153" />
  <sodipodi:namedview
     id="base"
     pagecolor="#ffffff"
     bordercolor="#666666"
     borderopacity="1.0"
     inkscape:pageopacity="0.0"
     inkscape:pageshadow="2"
     inkscape:zoom="0.49497475"
     inkscape:cx="498.64402"
     inkscape:cy="266.64245"
     inkscape:document-units="px"
     inkscape:current-layer="layer1"
     showgrid="false"
     inkscape:window-width="1301"
     inkscape:window-height="744"
     inkscape:window-x="65"
     inkscape:window-y="24"
     inkscape:window-maximized="1" />
  <metadata
     id="metadata3156">
    <rdf:RDF>
      <cc:Work
         rdf:about="">
        <dc:format>image/svg+xml</dc:format>
        <dc:type
           rdf:resource="http://purl.org/dc/dcmitype/StillImage" />
        <dc:title></dc:title>
      </cc:Work>
    </rdf:RDF>
  </metadata>
  <g
     inkscape:label="Layer 1"
     inkscape:groupmode="layer"
     id="layer1"
     transform="translate(0,-652.36218)">
    <path
       sodipodi:open="true"
       sodipodi:end="11.958875"
       sodipodi:start="5.6788281"
       transform="matrix(0.96969974,0,0,0.96969974,-10.239606,665.7981)"
       d="m 337.75592,95.502998 a 138.54858,138.54858 0 1 1 -0.24764,-0.357413"
       sodipodi:ry="138.54858"
       sodipodi:rx="138.54858"
       sodipodi:cy="174.23091"
       sodipodi:cx="223.74879"
       id="path4017"
       style="fill:#879bb8;fill-opacity:1;fill-rule:evenodd;stroke:none"
       sodipodi:type="arc" />
    <path
       inkscape:transform-center-y="-11.313378"
       inkscape:transform-center-x="-7.1736963"
       transform="translate(225.92249,709.90919)"
       d="m -144.45181,69.680121 c -8.34573,-9.411137 5.4351,-50.251387 9.41252,-62.184566 3.97742,-11.9331781 17.45502,-52.874494 29.77817,-55.396535 12.323144,-2.522042 40.801424,29.832629 49.14715,39.2437662 8.345725,9.41113611 37.063145,41.5537378 33.085724,53.4869158 -3.977421,11.933179 -46.236529,20.418757 -58.559675,22.9408 -12.323146,2.522042 -54.518169,11.320756 -62.863889,1.909619 z"
       inkscape:randomized="0"
       inkscape:rounded="0.2"
       inkscape:flatsided="false"
       sodipodi:arg2="3.4633202"
       sodipodi:arg1="2.4161226"
       sodipodi:r2="46.51207"
       sodipodi:r1="71.55703"
       sodipodi:cy="22.202948"
       sodipodi:cx="-90.913727"
       sodipodi:sides="3"
       id="path4019"
       style="fill:#879bb8;fill-opacity:1;fill-rule:evenodd;stroke:none"
       sodipodi:type="star" />
    <path
       sodipodi:type="star"
       style="fill:#879bb8;fill-opacity:1;fill-rule:evenodd;stroke:none"
       id="path4021"
       sodipodi:sides="3"
       sodipodi:cx="-90.913727"
       sodipodi:cy="22.202948"
       sodipodi:r1="71.55703"
       sodipodi:r2="46.51207"
       sodipodi:arg1="2.4161226"
       sodipodi:arg2="3.4633202"
       inkscape:flatsided="false"
       inkscape:rounded="0.2"
       inkscape:randomized="0"
       d="m -144.45181,69.680121 c -8.34573,-9.411137 5.4351,-50.251387 9.41252,-62.184566 3.97742,-11.9331781 17.45502,-52.874494 29.77817,-55.396535 12.323144,-2.522042 40.801424,29.832629 49.14715,39.2437662 8.345725,9.41113611 37.063145,41.5537378 33.085724,53.4869158 -3.977421,11.933179 -46.236529,20.418757 -58.559675,22.9408 -12.323146,2.522042 -54.518169,11.320756 -62.863889,1.909619 z"
       transform="matrix(-1,0,0,1,186.4913,709.90919)"
       inkscape:transform-center-x="7.173696"
       inkscape:transform-center-y="-11.313378" />
    <path
       sodipodi:end="9.823643"
       sodipodi:start="5.8505186"
       transform="translate(-2.3720056,645.25944)"
       d="m 310.57719,163.92436 a 110.10662,110.10662 0 1 1 -201.4239,3.40456"
       sodipodi:ry="110.10662"
       sodipodi:rx="110.10662"
       sodipodi:cy="210.09132"
       sodipodi:cx="210.61681"
       id="path4023"
       style="fill:#ffffff;fill-opacity:1;fill-rule:evenodd;stroke:none"
       sodipodi:type="arc"
       sodipodi:open="true" />
    <path
       inkscape:transform-center-y="-0.0042589729"
       inkscape:transform-center-x="-1.9815831"
       transform="matrix(0.36591887,0.2190848,0.3609823,-0.55140451,154.97649,775.29255)"
       d="m -76.771599,91.903476 c -4.794353,12.074664 -48.864911,18.371614 -61.719061,20.256914 -12.85414,1.8853 -56.87679,8.50888 -64.93658,-1.68048 -8.0598,-10.18937 8.52217,-51.504066 13.31652,-63.578732 4.79436,-12.074666 21.06949,-53.5111913 33.92364,-55.3964926 12.85414,-1.8853014 40.34274,33.1324516 48.40253,43.3218156 8.05979,10.189364 35.807304,45.00231 31.012951,57.076975 z"
       inkscape:randomized="0"
       inkscape:rounded="0.2"
       inkscape:flatsided="false"
       sodipodi:arg2="1.4251659"
       sodipodi:arg1="0.37796831"
       sodipodi:r2="48.039551"
       sodipodi:r1="73.907005"
       sodipodi:cy="64.629356"
       sodipodi:cx="-145.46198"
       sodipodi:sides="3"
       id="path4025"
       style="fill:#ffffff;fill-opacity:1;fill-rule:evenodd;stroke:none"
       sodipodi:type="star" />
    <path
       sodipodi:type="star"
       style="fill:#ffffff;fill-opacity:1;fill-rule:evenodd;stroke:none"
       id="path4027"
       sodipodi:sides="3"
       sodipodi:cx="-145.46198"
       sodipodi:cy="64.629356"
       sodipodi:r1="73.907005"
       sodipodi:r2="48.039551"
       sodipodi:arg1="0.37796831"
       sodipodi:arg2="1.4251659"
       inkscape:flatsided="false"
       inkscape:rounded="0.2"
       inkscape:randomized="0"
       d="m -76.771599,91.903476 c -4.794353,12.074664 -48.864911,18.371614 -61.719061,20.256914 -12.85414,1.8853 -56.87679,8.50888 -64.93658,-1.68048 -8.0598,-10.18937 8.52217,-51.504066 13.31652,-63.578732 4.79436,-12.074666 21.06949,-53.5111913 33.92364,-55.3964926 12.85414,-1.8853014 40.34274,33.1324516 48.40253,43.3218156 8.05979,10.189364 35.807304,45.00231 31.012951,57.076975 z"
       transform="matrix(-0.36591887,0.2190848,-0.3609823,-0.55140451,257.73919,775.29255)"
       inkscape:transform-center-x="1.9815789"
       inkscape:transform-center-y="-0.0042589729" />
    <rect
       ry="8.6295891"
       y="888.8443"
       x="193.4785"
       height="23.233509"
       width="31.199282"
       id="rect4029"
       style="fill:#000000;fill-opacity:1;fill-rule:evenodd;stroke:none" />
    <path
       sodipodi:type="arc"
       style="fill:#ffffff;fill-opacity:1;fill-rule:evenodd;stroke:none"
       id="path4031"
       sodipodi:cx="1645.791"
       sodipodi:cy="186.60527"
       sodipodi:rx="49.244938"
       sodipodi:ry="16.920055"
       d="m 1695.036,186.60527 a 49.244938,16.920055 0 1 1 -98.4899,0 49.244938,16.920055 0 1 1 98.4899,0 z"
       transform="matrix(1.3930678,0,0,1.3930678,-2084.9908,539.2413)" />
    <path
       sodipodi:open="true"
       sodipodi:end="11.958875"
       sodipodi:start="5.6788281"
       transform="translate(6.2142928,628.59191)"
       d="m 168.86873,170.43096 a 7.5761437,7.5761437 0 1 1 -0.0135,-0.0195"
       sodipodi:ry="7.5761437"
       sodipodi:rx="7.5761437"
       sodipodi:cy="174.73598"
       sodipodi:cx="162.63457"
       id="path4033"
       style="fill:#000000;fill-opacity:1;fill-rule:evenodd;stroke:none"
       sodipodi:type="arc" />
    <path
       sodipodi:type="arc"
       style="fill:#000000;fill-opacity:1;fill-rule:evenodd;stroke:none"
       id="path4035"
       sodipodi:cx="162.63457"
       sodipodi:cy="174.73598"
       sodipodi:rx="7.5761437"
       sodipodi:ry="7.5761437"
       d="m 168.86873,170.43096 a 7.5761437,7.5761437 0 1 1 -0.0135,-0.0195"
       transform="translate(83.995993,628.59191)"
       sodipodi:start="5.6788281"
       sodipodi:end="11.958875"
       sodipodi:open="true" />
    <rect
       style="fill:#879bb8;fill-opacity:1;fill-rule:evenodd;stroke:none"
       id="rect4037"
       width="19.697994"
       height="49.927563"
       x="199.04466"
       y="756.43085"
       ry="12.286859" />
    <g
       transform="translate(-1457.9004,593.65754)"
       style="font-size:120px;font-style:normal;font-variant:normal;font-weight:500;font-stretch:normal;text-align:center;line-height:125%;letter-spacing:0px;word-spacing:0px;text-anchor:middle;fill:#000000;fill-opacity:1;stroke:none;font-family:TlwgMono;-inkscape-font-specification:TlwgMono Medium"
       id="g4039">
      <path
         inkscape:connector-curvature="0"
         d="m 1593.3313,383.23651 10.08,0 0,55.44 -10.08,0 0,-24.56 -24.08,0 0,24.56 -10.08,0 0,-55.44 10.08,0 0,22.16 24.08,0 0,-22.16"
         style="font-size:80px;font-family:Ubuntu;-inkscape-font-specification:Ubuntu Medium"
         id="path4041" />
      <path
         inkscape:connector-curvature="0"
         d="m 1650.5113,437.39651 c -1.8668,0.48 -4.2934,0.96 -7.28,1.44 -2.9867,0.53333 -6.2667,0.8 -9.84,0.8 -3.3601,0 -6.1867,-0.48 -8.48,-1.44 -2.2401,-0.96 -4.0534,-2.29333 -5.44,-4 -1.3334,-1.70666 -2.2934,-3.73332 -2.88,-6.08 -0.5867,-2.39998 -0.8801,-5.01332 -0.88,-7.84 l 0,-23.44 9.68,0 0,21.92 c -10e-5,4.48002 0.6399,7.68001 1.92,9.6 1.3333,1.92001 3.6266,2.88001 6.88,2.88 1.1733,10e-6 2.3999,-0.0533 3.68,-0.16 1.3333,-0.10666 2.3199,-0.23999 2.96,-0.4 l 0,-33.84 9.68,0 0,40.56"
         style="font-size:80px;font-family:Ubuntu;-inkscape-font-specification:Ubuntu Medium"
         id="path4043" />
      <path
         inkscape:connector-curvature="0"
         d="m 1673.39,431.71651 c 2.56,10e-6 4.4266,-0.29332 5.6,-0.88 1.1733,-0.63999 1.76,-1.70665 1.76,-3.2 0,-1.38665 -0.64,-2.53332 -1.92,-3.44 -1.2267,-0.90665 -3.28,-1.89331 -6.16,-2.96 -1.76,-0.63998 -3.3867,-1.30665 -4.88,-2 -1.44,-0.74664 -2.6933,-1.59998 -3.76,-2.56 -1.0667,-0.95997 -1.92,-2.10664 -2.56,-3.44 -0.5867,-1.38664 -0.88,-3.06664 -0.88,-5.04 0,-3.83996 1.4133,-6.85329 4.24,-9.04 2.8267,-2.23996 6.6667,-3.35995 11.52,-3.36 2.4533,5e-5 4.8,0.24004 7.04,0.72 2.24,0.42671 3.92,0.85338 5.04,1.28 l -1.76,7.84 c -1.0667,-0.47996 -2.4267,-0.90663 -4.08,-1.28 -1.6534,-0.42663 -3.5734,-0.63996 -5.76,-0.64 -1.9734,4e-5 -3.5733,0.3467 -4.8,1.04 -1.2267,0.64004 -1.84,1.65337 -1.84,3.04 0,0.69337 0.1067,1.3067 0.32,1.84 0.2667,0.53336 0.6933,1.04003 1.28,1.52 0.5867,0.4267 1.36,0.88003 2.32,1.36 0.96,0.42669 2.1333,0.88003 3.52,1.36 2.2933,0.85336 4.24,1.70669 5.84,2.56 1.6,0.80002 2.9066,1.73336 3.92,2.8 1.0666,1.01335 1.84,2.18669 2.32,3.52 0.48,1.33335 0.72,2.93335 0.72,4.8 0,4.00001 -1.4934,7.04001 -4.48,9.12 -2.9334,2.02667 -7.1467,3.04 -12.64,3.04 -3.68,0 -6.64,-0.32 -8.88,-0.96 -2.24,-0.58666 -3.8133,-1.06666 -4.72,-1.44 l 1.68,-8.08 c 1.44,0.58668 3.1467,1.14668 5.12,1.68 2.0267,0.53334 4.32,0.80001 6.88,0.8"
         style="font-size:80px;font-family:Ubuntu;-inkscape-font-specification:Ubuntu Medium"
         id="path4045" />
      <path
         inkscape:connector-curvature="0"
         d="m 1709.1525,413.15651 c 1.2266,-1.27997 2.5333,-2.63997 3.92,-4.08 1.3866,-1.4933 2.7466,-2.95997 4.08,-4.4 1.3333,-1.4933 2.5866,-2.90663 3.76,-4.24 1.2266,-1.38662 2.2666,-2.58662 3.12,-3.6 l 11.44,0 c -2.6667,2.98671 -5.4934,6.08004 -8.48,9.28 -2.9334,3.20003 -5.8934,6.32003 -8.88,9.36 1.6,1.33336 3.28,2.96002 5.04,4.88 1.76,1.86669 3.4666,3.86668 5.12,6 1.6533,2.13335 3.2,4.26668 4.64,6.4 1.44,2.13334 2.64,4.10667 3.6,5.92 l -11.2,0 c -0.96,-1.65333 -2.08,-3.38666 -3.36,-5.2 -1.2267,-1.81332 -2.56,-3.57332 -4,-5.28 -1.44,-1.70665 -2.9067,-3.30665 -4.4,-4.8 -1.4934,-1.54665 -2.96,-2.85331 -4.4,-3.92 l 0,19.2 -9.68,0 0,-60.48 9.68,-1.6 0,36.56"
         style="font-size:80px;font-family:Ubuntu;-inkscape-font-specification:Ubuntu Medium"
         id="path4047" />
      <path
         inkscape:connector-curvature="0"
         d="m 1777.695,396.83651 c -4.32,15.89336 -9.3334,30.29335 -15.04,43.2 -1.0667,2.4 -2.16,4.45333 -3.28,6.16 -1.12,1.70666 -2.3734,3.11999 -3.76,4.24 -1.3867,1.11999 -2.9333,1.91999 -4.64,2.4 -1.7067,0.53332 -3.68,0.79999 -5.92,0.8 -1.4933,-10e-6 -2.9867,-0.16001 -4.48,-0.48 -1.44,-0.32001 -2.5333,-0.66668 -3.28,-1.04 l 1.76,-7.76 c 1.92,0.74666 3.8133,1.12 5.68,1.12 2.5067,0 4.4533,-0.61334 5.84,-1.84 1.44,-1.17333 2.6933,-3.01333 3.76,-5.52 -3.04,-5.86666 -5.9733,-12.26665 -8.8,-19.2 -2.7733,-6.9333 -5.2533,-14.2933 -7.44,-22.08 l 10.32,0 c 0.5333,2.24004 1.1733,4.66671 1.92,7.28 0.8,2.61337 1.6533,5.28003 2.56,8 0.9067,2.66669 1.8666,5.33336 2.88,8 1.0133,2.66668 2.0266,5.14668 3.04,7.44 1.7066,-4.74665 3.3066,-9.78664 4.8,-15.12 1.4933,-5.38663 2.8533,-10.58663 4.08,-15.6 l 10,0"
         style="font-size:80px;font-family:Ubuntu;-inkscape-font-specification:Ubuntu Medium"
         id="path4049" />
    </g>
  </g>
</svg>
