<?xml version="1.0" encoding="UTF-8" standalone="no"?>
<!-- Created with Inkscape (http://www.inkscape.org/) -->
<svg xmlns:rdf="http://www.w3.org/1999/02/22-rdf-syntax-ns#" xmlns="http://www.w3.org/2000/svg" height="100" width="100" version="1.1" xmlns:cc="http://creativecommons.org/ns#" xmlns:dc="http://purl.org/dc/elements/1.1/">
<metadata>
<rdf:RDF>
<cc:Work rdf:about="">
<dc:format>image/svg+xml</dc:format>
<dc:type rdf:resource="http://purl.org/dc/dcmitype/StillImage"/>
<dc:title/>
</cc:Work>
</rdf:RDF>
</metadata>
<g fill-rule="evenodd" transform="translate(0,-952.36218)">
<path d="m337.76,95.503a138.55,138.55,0,1,1,-0.24764,-0.35741" transform="matrix(0.31561225,0,0,0.31561225,-20.239484,953.69172)" fill="#879bb8"/>
<path d="m-144.45,69.68c-8.3457-9.4111,5.4351-50.251,9.4125-62.185,3.9774-11.933,17.455-52.874,29.778-55.397,12.323-2.522,40.801,29.833,49.147,39.244,8.3457,9.4111,37.063,41.554,33.086,53.487-3.9774,11.933-46.237,20.419-58.56,22.941s-54.518,11.321-62.864,1.9096z" transform="matrix(0.32547417,0,0,0.32547417,56.62519,968.04874)" fill="#879bb8"/>
<path transform="matrix(-0.32547417,0,0,0.32547417,43.79135,968.04874)" fill="#879bb8" d="m-144.45,69.68c-8.3457-9.4111,5.4351-50.251,9.4125-62.185,3.9774-11.933,17.455-52.874,29.778-55.397,12.323-2.522,40.801,29.833,49.147,39.244,8.3457,9.4111,37.063,41.554,33.086,53.487-3.9774,11.933-46.237,20.419-58.56,22.941s-54.518,11.321-62.864,1.9096z"/>
<path d="m310.58,163.92a110.11,110.11,0,1,1,-201.42,3.4046" transform="matrix(0.32547417,0,0,0.32547417,-17.678784,947.00691)" fill="#FFF"/>
<path d="m-76.772,91.903c-4.7944,12.075-48.865,18.372-61.719,20.257-12.854,1.8853-56.877,8.5089-64.937-1.6805-8.0598-10.189,8.5222-51.504,13.317-63.579,4.7944-12.075,21.069-53.511,33.924-55.396,12.854-1.8853,40.343,33.132,48.403,43.322,8.0598,10.189,35.807,45.002,31.013,57.077z" transform="matrix(0.11909715,0.07130645,0.11749043,-0.17946794,33.534097,989.32934)" fill="#FFF"/>
<path transform="matrix(-0.11909715,0.07130645,-0.11749043,-0.17946794,66.980704,989.32934)" fill="#FFF" d="m-76.772,91.903c-4.7944,12.075-48.865,18.372-61.719,20.257-12.854,1.8853-56.877,8.5089-64.937-1.6805-8.0598-10.189,8.5222-51.504,13.317-63.579,4.7944-12.075,21.069-53.511,33.924-55.396,12.854-1.8853,40.343,33.132,48.403,43.322,8.0598,10.189,35.807,45.002,31.013,57.077z"/>
<rect ry="2.8087" height="7.5619" width="10.155" y="1026.3" x="46.065" fill="#000"/>
<path d="m1695,186.61a49.245,16.92,0,1,1,-98.49,0,49.245,16.92,0,1,1,98.49,0z" transform="matrix(0.45340764,0,0,0.45340764,-695.51745,912.50074)" fill="#FFF"/>
<path d="m168.87,170.43a7.5761,7.5761,0,1,1,-0.0135,-0.0195" transform="matrix(0.32547417,0,0,0.32547417,-14.884166,941.58206)" fill="#000"/>
<path d="m168.87,170.43a7.5761,7.5761,0,1,1,-0.0135,-0.0195" transform="matrix(0.32547417,0,0,0.32547417,10.431771,941.58206)" fill="#000"/>
<rect ry="3.9991" height="16.25" width="6.4112" y="983.19" x="47.877" fill="#879bb8"/>
</g>
</svg>
