<?xml version="1.0" encoding="UTF-8" standalone="no"?>
<!-- Created with Inkscape (http://www.inkscape.org/) -->

<svg
   xmlns:dc="http://purl.org/dc/elements/1.1/"
   xmlns:cc="http://creativecommons.org/ns#"
   xmlns:rdf="http://www.w3.org/1999/02/22-rdf-syntax-ns#"
   xmlns:svg="http://www.w3.org/2000/svg"
   xmlns="http://www.w3.org/2000/svg"
   xmlns:sodipodi="http://sodipodi.sourceforge.net/DTD/sodipodi-0.dtd"
   xmlns:inkscape="http://www.inkscape.org/namespaces/inkscape"
   width="400"
   height="400"
   id="svg3104"
   version="1.1"
   inkscape:version="0.48.4 r9939"
   sodipodi:docname="New document 4">
  <defs
     id="defs3106" />
  <sodipodi:namedview
     id="base"
     pagecolor="#ffffff"
     bordercolor="#666666"
     borderopacity="1.0"
     inkscape:pageopacity="0.0"
     inkscape:pageshadow="2"
     inkscape:zoom="0.35"
     inkscape:cx="-48.910436"
     inkscape:cy="372.85941"
     inkscape:document-units="px"
     inkscape:current-layer="layer1"
     showgrid="false"
     inkscape:window-width="1301"
     inkscape:window-height="744"
     inkscape:window-x="65"
     inkscape:window-y="24"
     inkscape:window-maximized="1" />
  <metadata
     id="metadata3109">
    <rdf:RDF>
      <cc:Work
         rdf:about="">
        <dc:format>image/svg+xml</dc:format>
        <dc:type
           rdf:resource="http://purl.org/dc/dcmitype/StillImage" />
        <dc:title></dc:title>
      </cc:Work>
    </rdf:RDF>
  </metadata>
  <g
     inkscape:label="Layer 1"
     inkscape:groupmode="layer"
     id="layer1"
     transform="translate(0,-652.36218)">
    <path
       sodipodi:open="true"
       sodipodi:end="11.958875"
       sodipodi:start="5.6788281"
       transform="matrix(1.2447333,0,0,1.2447333,-74.929845,660.40779)"
       d="m 337.75592,95.502998 a 138.54858,138.54858 0 1 1 -0.24764,-0.357413"
       sodipodi:ry="138.54858"
       sodipodi:rx="138.54858"
       sodipodi:cy="174.23091"
       sodipodi:cx="223.74879"
       id="path4017"
       style="fill:#879bb8;fill-opacity:1;fill-rule:evenodd;stroke:none"
       sodipodi:type="arc" />
    <path
       inkscape:transform-center-y="-14.522162"
       inkscape:transform-center-x="-9.2083624"
       transform="matrix(1.2836274,0,0,1.2836274,228.21434,717.03)"
       d="m -144.45181,69.680121 c -8.34573,-9.411137 5.4351,-50.251387 9.41252,-62.184566 3.97742,-11.9331781 17.45502,-52.874494 29.77817,-55.396535 12.323144,-2.522042 40.801424,29.832629 49.14715,39.2437662 8.345725,9.41113611 37.063145,41.5537378 33.085724,53.4869158 -3.977421,11.933179 -46.236529,20.418757 -58.559675,22.9408 -12.323146,2.522042 -54.518169,11.320756 -62.863889,1.909619 z"
       inkscape:randomized="0"
       inkscape:rounded="0.2"
       inkscape:flatsided="false"
       sodipodi:arg2="3.4633202"
       sodipodi:arg1="2.4161226"
       sodipodi:r2="46.51207"
       sodipodi:r1="71.55703"
       sodipodi:cy="22.202948"
       sodipodi:cx="-90.913727"
       sodipodi:sides="3"
       id="path4019"
       style="fill:#879bb8;fill-opacity:1;fill-rule:evenodd;stroke:none"
       sodipodi:type="star" />
    <path
       sodipodi:type="star"
       style="fill:#879bb8;fill-opacity:1;fill-rule:evenodd;stroke:none"
       id="path4021"
       sodipodi:sides="3"
       sodipodi:cx="-90.913727"
       sodipodi:cy="22.202948"
       sodipodi:r1="71.55703"
       sodipodi:r2="46.51207"
       sodipodi:arg1="2.4161226"
       sodipodi:arg2="3.4633202"
       inkscape:flatsided="false"
       inkscape:rounded="0.2"
       inkscape:randomized="0"
       d="m -144.45181,69.680121 c -8.34573,-9.411137 5.4351,-50.251387 9.41252,-62.184566 3.97742,-11.9331781 17.45502,-52.874494 29.77817,-55.396535 12.323144,-2.522042 40.801424,29.832629 49.14715,39.2437662 8.345725,9.41113611 37.063145,41.5537378 33.085724,53.4869158 -3.977421,11.933179 -46.236529,20.418757 -58.559675,22.9408 -12.323146,2.522042 -54.518169,11.320756 -62.863889,1.909619 z"
       transform="matrix(-1.2836274,0,0,1.2836274,177.59936,717.03)"
       inkscape:transform-center-x="9.2083716"
       inkscape:transform-center-y="-14.522162" />
    <path
       sodipodi:end="9.823643"
       sodipodi:start="5.8505186"
       transform="matrix(1.2836274,0,0,1.2836274,-64.830777,634.0438)"
       d="m 310.57719,163.92436 a 110.10662,110.10662 0 1 1 -201.4239,3.40456"
       sodipodi:ry="110.10662"
       sodipodi:rx="110.10662"
       sodipodi:cy="210.09132"
       sodipodi:cx="210.61681"
       id="path4023"
       style="fill:#ffffff;fill-opacity:1;fill-rule:evenodd;stroke:none"
       sodipodi:type="arc"
       sodipodi:open="true" />
    <path
       inkscape:transform-center-y="-0.0054634593"
       inkscape:transform-center-x="-2.5436241"
       transform="matrix(0.46970353,0.28122328,0.46336682,-0.707798,137.1461,800.95788)"
       d="m -76.771599,91.903476 c -4.794353,12.074664 -48.864911,18.371614 -61.719061,20.256914 -12.85414,1.8853 -56.87679,8.50888 -64.93658,-1.68048 -8.0598,-10.18937 8.52217,-51.504066 13.31652,-63.578732 4.79436,-12.074666 21.06949,-53.5111913 33.92364,-55.3964926 12.85414,-1.8853014 40.34274,33.1324516 48.40253,43.3218156 8.05979,10.189364 35.807304,45.00231 31.012951,57.076975 z"
       inkscape:randomized="0"
       inkscape:rounded="0.2"
       inkscape:flatsided="false"
       sodipodi:arg2="1.4251659"
       sodipodi:arg1="0.37796831"
       sodipodi:r2="48.039551"
       sodipodi:r1="73.907005"
       sodipodi:cy="64.629356"
       sodipodi:cx="-145.46198"
       sodipodi:sides="3"
       id="path4025"
       style="fill:#ffffff;fill-opacity:1;fill-rule:evenodd;stroke:none"
       sodipodi:type="star" />
    <path
       sodipodi:type="star"
       style="fill:#ffffff;fill-opacity:1;fill-rule:evenodd;stroke:none"
       id="path4027"
       sodipodi:sides="3"
       sodipodi:cx="-145.46198"
       sodipodi:cy="64.629356"
       sodipodi:r1="73.907005"
       sodipodi:r2="48.039551"
       sodipodi:arg1="0.37796831"
       sodipodi:arg2="1.4251659"
       inkscape:flatsided="false"
       inkscape:rounded="0.2"
       inkscape:randomized="0"
       d="m -76.771599,91.903476 c -4.794353,12.074664 -48.864911,18.371614 -61.719061,20.256914 -12.85414,1.8853 -56.87679,8.50888 -64.93658,-1.68048 -8.0598,-10.18937 8.52217,-51.504066 13.31652,-63.578732 4.79436,-12.074666 21.06949,-53.5111913 33.92364,-55.3964926 12.85414,-1.8853014 40.34274,33.1324516 48.40253,43.3218156 8.05979,10.189364 35.807304,45.00231 31.012951,57.076975 z"
       transform="matrix(-0.46970353,0.28122328,-0.46336682,-0.707798,269.05513,800.95788)"
       inkscape:transform-center-x="2.5436126"
       inkscape:transform-center-y="-0.0054634593" />
    <rect
       ry="11.077179"
       y="946.71594"
       x="186.56833"
       height="29.823172"
       width="40.048256"
       id="rect4029"
       style="fill:#000000;fill-opacity:1;fill-rule:evenodd;stroke:none" />
    <path
       sodipodi:type="arc"
       style="fill:#ffffff;fill-opacity:1;fill-rule:evenodd;stroke:none"
       id="path4031"
       sodipodi:cx="1645.791"
       sodipodi:cy="186.60527"
       sodipodi:rx="49.244938"
       sodipodi:ry="16.920055"
       d="m 1695.036,186.60527 a 49.244938,16.920055 0 1 1 -98.4899,0 49.244938,16.920055 0 1 1 98.4899,0 z"
       transform="matrix(1.7881802,0,0,1.7881802,-2738.1376,497.956)" />
    <path
       sodipodi:open="true"
       sodipodi:end="11.958875"
       sodipodi:start="5.6788281"
       transform="matrix(1.2836274,0,0,1.2836274,-53.809167,612.64889)"
       d="m 168.86873,170.43096 a 7.5761437,7.5761437 0 1 1 -0.0135,-0.0195"
       sodipodi:ry="7.5761437"
       sodipodi:rx="7.5761437"
       sodipodi:cy="174.73598"
       sodipodi:cx="162.63457"
       id="path4033"
       style="fill:#000000;fill-opacity:1;fill-rule:evenodd;stroke:none"
       sodipodi:type="arc" />
    <path
       sodipodi:type="arc"
       style="fill:#000000;fill-opacity:1;fill-rule:evenodd;stroke:none"
       id="path4035"
       sodipodi:cx="162.63457"
       sodipodi:cy="174.73598"
       sodipodi:rx="7.5761437"
       sodipodi:ry="7.5761437"
       d="m 168.86873,170.43096 a 7.5761437,7.5761437 0 1 1 -0.0135,-0.0195"
       transform="matrix(1.2836274,0,0,1.2836274,46.033564,612.64889)"
       sodipodi:start="5.6788281"
       sodipodi:end="11.958875"
       sodipodi:open="true" />
    <rect
       style="fill:#879bb8;fill-opacity:1;fill-rule:evenodd;stroke:none"
       id="rect4037"
       width="25.284887"
       height="64.088394"
       x="193.7132"
       y="776.7464"
       ry="15.771749" />
  </g>
</svg>
